<svg width="25" height="25" viewBox="0 0 25 25" fill="none" xmlns="http://www.w3.org/2000/svg">
<path d="M21.875 9.375C21.875 4.20533 17.6697 0 12.5 0C7.33033 0 3.125 4.20533 3.125 9.375C3.125 14.0113 6.51073 17.8615 10.9375 18.6089V20.3125H7.8125V23.4375H10.9375V25H14.0625V23.4375H17.1875V20.3125H14.0625V18.6089C18.4893 17.8615 21.875 14.0113 21.875 9.375ZM6.25 9.375C6.25 5.9288 9.0538 3.125 12.5 3.125C15.9462 3.125 18.75 5.9288 18.75 9.375C18.75 12.8212 15.9462 15.625 12.5 15.625C9.0538 15.625 6.25 12.8212 6.25 9.375Z" fill="#1D1D1D"/>
</svg>
