<svg width="20" height="20" viewBox="0 0 20 20" fill="none" xmlns="http://www.w3.org/2000/svg">
<g clip-path="url(#clip0)">
<path d="M9.99999 0C5.86499 0 2.49999 3.38833 2.49999 7.55417C2.49999 13.4733 9.29499 19.585 9.58416 19.8417C9.70332 19.9475 9.85165 20 9.99999 20C10.1483 20 10.2967 19.9475 10.4158 19.8425C10.705 19.585 17.5 13.4733 17.5 7.55417C17.5 3.38833 14.135 0 9.99999 0ZM9.99999 11.6667C7.70249 11.6667 5.83332 9.7975 5.83332 7.5C5.83332 5.2025 7.70249 3.33333 9.99999 3.33333C12.2975 3.33333 14.1667 5.2025 14.1667 7.5C14.1667 9.7975 12.2975 11.6667 9.99999 11.6667Z" fill="#FAFAFA"/>
</g>
<defs>
<clipPath id="clip0">
<rect width="20" height="20" fill="white"/>
</clipPath>
</defs>
</svg>
