<svg width="20" height="20" viewBox="0 0 20 20" fill="none" xmlns="http://www.w3.org/2000/svg">
<path d="M17.1431 7.14287H16.4288V6.42857C16.4248 2.8798 13.549 0.00393415 10.0002 0C6.45142 0.00393415 3.57556 2.8798 3.57162 6.42857V7.14287H2.85737C2.46286 7.14287 2.14307 7.46266 2.14307 7.85716V19.2857C2.14307 19.6802 2.46286 20 2.85737 20H17.1431C17.5376 20 17.8574 19.6802 17.8574 19.2857V7.85712C17.8574 7.46266 17.5376 7.14287 17.1431 7.14287ZM5.00022 6.42857C5.00022 3.66713 7.23879 1.42856 10.0002 1.42856C12.7617 1.42856 15.0002 3.66713 15.0002 6.42857V7.14287H5.00022V6.42857ZM16.4288 18.5714H3.57162V8.57142H16.4288V18.5714Z" fill="#1D1D1D"/>
<path d="M12.0203 12.1419C11.7185 11.2851 10.9082 10.7126 9.99981 10.7143C8.81911 10.712 7.86013 11.6674 7.85791 12.8481C7.8562 13.7565 8.42874 14.5668 9.28555 14.8686V16.4286C9.28555 16.8231 9.60535 17.1429 9.99986 17.1429C10.3944 17.1429 10.7141 16.8231 10.7141 16.4285V14.8686C11.8278 14.4763 12.4126 13.2555 12.0203 12.1419ZM9.99981 13.5714C9.60531 13.5714 9.28551 13.2516 9.28551 12.8571C9.28551 12.4626 9.60531 12.1428 9.99981 12.1428C10.3943 12.1428 10.7141 12.4626 10.7141 12.8571C10.7141 13.2516 10.3943 13.5714 9.99981 13.5714Z" fill="#1D1D1D"/>
</svg>
