<svg width="25" height="25" viewBox="0 0 25 25" fill="none" xmlns="http://www.w3.org/2000/svg">
<path d="M13.5232 0V2.81611H20.1926L15.242 7.76675C13.6529 6.58784 11.6855 5.89023 9.55493 5.89023C4.27788 5.89023 0 10.1681 0 15.4451C0 20.7221 4.27788 25 9.55488 25C14.8319 25 19.1098 20.7221 19.1098 15.4451C19.1098 13.3146 18.4122 11.3471 17.2333 9.75801L22.1839 4.80742V11.4768H25V0L13.5232 0ZM9.55488 21.8531C6.01582 21.8531 3.14683 18.9841 3.14683 15.4451C3.14683 11.906 6.01582 9.03701 9.55488 9.03701C13.0939 9.03701 15.9629 11.906 15.9629 15.4451C15.9629 18.9842 13.0939 21.8531 9.55488 21.8531Z" fill="#1D1D1D"/>
</svg>
