<svg width="86" height="86" viewBox="0 0 86 86" fill="none" xmlns="http://www.w3.org/2000/svg">
<g clip-path="url(#clip0)">
<path d="M84.8489 30.1281L61.8706 25.5344C62.9318 23.1046 63.5728 20.5122 63.7659 17.8677C63.7659 8.01497 55.2919 0 44.875 0C34.4581 0 25.9842 8.01497 25.9842 17.8677C25.9842 20.7658 27.5468 25.153 29.722 29.846L28.667 30.0686L1.72954 24.3975C1.30693 24.3086 0.866688 24.4151 0.531422 24.6872C0.195988 24.9593 0.00114453 25.3682 0.000976562 25.8V78.8333C0.00114453 79.511 0.475824 80.0961 1.13897 80.2358L28.3722 85.9691C28.5669 86.0101 28.7681 86.0101 28.963 85.9691L55.9085 80.2965L84.2862 85.972C84.3789 85.9903 84.473 85.9997 84.5675 86C85.3592 85.9998 86.0008 85.3582 86.0008 84.5667V31.5333C86.0003 30.8503 85.5184 30.2624 84.8489 30.1281ZM27.2341 82.8002L2.86753 77.6701V59.5659C7.91869 61.0605 18.703 64.9352 27.2343 72.5746V82.8002H27.2341ZM27.2341 68.8112C19.9725 63.2083 11.6995 59.0568 2.86736 56.5838V45.085C8.02501 42.6251 19.0869 38.8569 27.2341 46.5089V68.8112ZM27.2341 42.7753C18.6594 36.576 8.10278 39.7011 2.86736 41.9431V27.5664L27.2341 32.6965V42.7753ZM30.1008 82.8002V75.3704C31.9189 77.332 33.5161 79.4874 34.8636 81.7974L30.1008 82.8002ZM54.4675 77.6701L37.8081 81.1775C35.7677 77.5135 33.1672 74.191 30.1008 71.3301V49.6222C32.1201 52.2534 33.8697 55.0812 35.3233 58.0626C38.7378 64.6006 41.733 70.2645 54.4675 71.5327V77.6701ZM54.4675 68.6579C43.5148 67.5018 41.1083 62.9476 37.8638 56.7356C35.8761 52.5489 33.2579 48.6915 30.1008 45.2983V32.6951L31.0018 32.5053C34.3407 39.0853 38.0617 45.4644 42.1455 51.6099C42.7683 52.502 43.7877 53.0334 44.8757 53.0334C45.9636 53.0334 46.983 52.502 47.6058 51.6099C48.9246 49.67 51.6363 45.426 54.4674 40.4744V68.6579H54.4675ZM54.5989 34.3009C54.5925 34.315 54.5834 34.3268 54.5776 34.3412C51.7305 39.7149 48.6123 44.9404 45.2348 49.9974C45.1464 50.1047 45.0148 50.1667 44.8757 50.1667C44.7366 50.1667 44.6051 50.1046 44.5166 49.9974C39.0534 41.9656 28.8506 24.294 28.8506 17.8678C28.8506 9.59673 36.0397 2.86672 44.8748 2.86672C53.71 2.86672 60.8991 9.59673 60.8991 17.8677C60.8992 21.2457 58.07 27.7372 54.5989 34.3009ZM83.1341 82.8183L57.3341 77.6588V71.7455C58.3706 71.7956 59.3878 71.829 60.3617 71.829C72.3224 71.829 79.6467 68.2729 83.1341 65.9751V82.8183ZM83.1341 62.4189C81.268 63.9507 73.1445 69.6514 57.3341 68.8625V40.9844C63.3292 49.2881 72.8937 54.2727 83.1341 54.4304V62.4189ZM83.1341 51.5654C65.0879 50.887 58.2745 37.5751 57.3341 35.5274V35.262C58.5754 32.9058 59.754 30.5167 60.7551 28.2347L83.1341 32.7092V51.5654Z" fill="black"/>
<path d="M44.8744 9.44962C40.1248 9.44962 36.2744 13.3 36.2744 18.0496C36.2744 22.7993 40.1248 26.6496 44.8744 26.6496C49.6219 26.6444 53.4692 22.7971 53.4744 18.0496C53.4744 13.3 49.6241 9.44962 44.8744 9.44962ZM44.8744 23.7831C41.7092 23.7799 39.1442 21.2148 39.1411 18.0498C39.1411 14.8834 41.708 12.3165 44.8744 12.3165C48.0408 12.3165 50.6077 14.8834 50.6077 18.0498C50.6077 21.2162 48.041 23.7831 44.8744 23.7831Z" fill="black"/>
</g>
<defs>
<clipPath id="clip0">
<rect width="86" height="86" fill="white"/>
</clipPath>
</defs>
</svg>
