<svg width="86" height="86" viewBox="0 0 86 86" fill="none" xmlns="http://www.w3.org/2000/svg">
<path d="M77.6016 11.0859H31.9141C30.9863 11.0859 30.2344 11.8379 30.2344 12.7656C30.2344 13.6934 30.9863 14.4453 31.9141 14.4453H77.6016C80.3803 14.4453 82.6406 16.7057 82.6406 19.4844V66.5156C82.6406 69.2943 80.3803 71.5547 77.6016 71.5547H8.39844C5.61974 71.5547 3.35938 69.2943 3.35938 66.5156V19.4844C3.35938 16.7057 5.61974 14.4453 8.39844 14.4453H18.4766C19.4043 14.4453 20.1562 13.6934 20.1562 12.7656C20.1562 11.8379 19.4043 11.0859 18.4766 11.0859H8.39844C3.76749 11.0859 0 14.8534 0 19.4844V66.5156C0 71.1466 3.76749 74.9141 8.39844 74.9141H77.6016C82.2325 74.9141 86 71.1466 86 66.5156V19.4844C86 14.8534 82.2325 11.0859 77.6016 11.0859Z" fill="black"/>
<path d="M25.1953 19.8203C16.3041 19.8203 9.07031 27.0541 9.07031 35.9453C9.07031 44.8365 16.3041 52.0703 25.1953 52.0703C34.0865 52.0703 41.3203 44.8365 41.3203 35.9453C41.3203 27.0541 34.0865 19.8203 25.1953 19.8203ZM17.9018 46.4132C19.1117 43.5046 21.9718 41.5526 25.1953 41.5526C28.4189 41.5526 31.2796 43.5046 32.4895 46.4132C30.4201 47.8593 27.9058 48.7109 25.1953 48.7109C22.4848 48.7109 19.9706 47.8593 17.9018 46.4132ZM22.1391 35.137V34.5058C22.1391 32.8202 23.5104 31.4495 25.1953 31.4495C26.8802 31.4495 28.2516 32.8202 28.2516 34.5058V35.137C28.2516 36.8219 26.8802 38.1932 25.1953 38.1932C23.5104 38.1932 22.1391 36.8219 22.1391 35.137ZM35.0661 44.0301C33.9284 41.9594 32.17 40.3125 30.0684 39.3027C31.0289 38.1807 31.6109 36.7261 31.6109 35.137V34.5058C31.6109 30.9679 28.7325 28.0901 25.1953 28.0901C21.6581 28.0901 18.7797 30.9679 18.7797 34.5058V35.137C18.7797 36.7261 19.3617 38.1807 20.3223 39.3027C18.2207 40.3118 16.4622 41.9594 15.3245 44.0301C13.5169 41.8268 12.4297 39.0107 12.4297 35.9453C12.4297 28.9064 18.1564 23.1797 25.1953 23.1797C32.2343 23.1797 37.9609 28.9064 37.9609 35.9453C37.9609 39.0107 36.8737 41.8268 35.0661 44.0301Z" fill="black"/>
<path d="M51.0625 44.6797H75.25C76.1778 44.6797 76.9297 43.9278 76.9297 43V29.5625C76.9297 28.6347 76.1778 27.8828 75.25 27.8828H51.0625C50.1347 27.8828 49.3828 28.6347 49.3828 29.5625V43C49.3828 43.9278 50.1347 44.6797 51.0625 44.6797ZM52.7422 31.2422H73.5703V41.3203H52.7422V31.2422Z" fill="black"/>
<path d="M51.0625 51.3984H75.25C76.1778 51.3984 76.9297 50.6465 76.9297 49.7188C76.9297 48.791 76.1778 48.0391 75.25 48.0391H51.0625C50.1347 48.0391 49.3828 48.791 49.3828 49.7188C49.3828 50.6465 50.1347 51.3984 51.0625 51.3984Z" fill="black"/>
<path d="M49.8749 57.6251C50.1872 57.9374 50.6209 58.1172 51.0625 58.1172C51.5041 58.1172 51.9378 57.9374 52.2501 57.6251C52.5624 57.3128 52.7422 56.8791 52.7422 56.4375C52.7422 55.9959 52.5624 55.5622 52.2501 55.2499C51.9378 54.9376 51.5041 54.7578 51.0625 54.7578C50.6209 54.7578 50.1872 54.9376 49.8749 55.2499C49.5626 55.5622 49.3828 55.9959 49.3828 56.4375C49.3828 56.8791 49.5626 57.3128 49.8749 57.6251Z" fill="black"/>
<path d="M56.5937 55.2499C56.2813 55.5622 56.1016 55.9959 56.1016 56.4375C56.1016 56.8791 56.2813 57.3128 56.5937 57.6251C56.906 57.9374 57.3397 58.1172 57.7812 58.1172C58.2228 58.1172 58.6565 57.9374 58.9688 57.6251C59.2812 57.3128 59.4609 56.8791 59.4609 56.4375C59.4609 55.9959 59.2812 55.5622 58.9688 55.2499C58.6565 54.9376 58.2228 54.7578 57.7812 54.7578C57.3397 54.7578 56.906 54.9376 56.5937 55.2499Z" fill="black"/>
<path d="M75.25 54.7578H64.5C63.5722 54.7578 62.8203 55.5097 62.8203 56.4375C62.8203 57.3653 63.5722 58.1172 64.5 58.1172H75.25C76.1778 58.1172 76.9297 57.3653 76.9297 56.4375C76.9297 55.5097 76.1778 54.7578 75.25 54.7578Z" fill="black"/>
<path d="M37.2332 57.1232C37.2332 56.1961 36.4806 55.4435 35.5535 55.4435H14.8369C13.9098 55.4435 13.1572 56.1961 13.1572 57.1232C13.1572 58.0509 13.9098 58.8029 14.8369 58.8029H35.5535C36.4806 58.8029 37.2332 58.0509 37.2332 57.1232Z" fill="black"/>
<path d="M17.5244 62.1622C16.5973 62.1622 15.8447 62.9148 15.8447 63.8419C15.8447 64.7697 16.5973 65.5216 17.5244 65.5216H32.866C33.7931 65.5216 34.5457 64.7697 34.5457 63.8419C34.5457 62.9148 33.7931 62.1622 32.866 62.1622H17.5244Z" fill="black"/>
<path d="M25.1953 14.4453C25.6369 14.4453 26.0706 14.2655 26.3829 13.9532C26.6952 13.6409 26.875 13.2072 26.875 12.7656C26.875 12.3241 26.6952 11.8904 26.3829 11.578C26.0706 11.2657 25.6369 11.0859 25.1953 11.0859C24.7537 11.0859 24.32 11.2657 24.0077 11.578C23.6954 11.8904 23.5156 12.3241 23.5156 12.7656C23.5156 13.2072 23.6954 13.6409 24.0077 13.9532C24.32 14.2655 24.7537 14.4453 25.1953 14.4453Z" fill="black"/>
</svg>
