<svg width="86" height="86" viewBox="0 0 86 86" fill="none" xmlns="http://www.w3.org/2000/svg">
<path d="M72.3944 0H13.6057C10.1325 0 7.30688 2.82557 7.30688 6.29883V74.9141C7.30688 78.3873 10.1325 81.2129 13.6057 81.2129C14.3014 81.2129 14.8655 80.649 14.8655 79.9531C14.8655 79.2572 14.3014 78.6934 13.6057 78.6934C11.5217 78.6934 9.82642 76.9979 9.82642 74.9141V6.29883C9.82642 4.21501 11.5217 2.51953 13.6057 2.51953H72.3944C74.4783 2.51953 76.1737 4.21501 76.1737 6.29883V74.9141C76.1737 76.9979 74.4783 78.6934 72.3944 78.6934C70.7233 78.6934 20.2406 78.6934 18.5425 78.6934C17.7522 78.685 17.128 79.4052 17.294 80.2108L17.8441 82.9618C18.1961 84.7223 19.7547 86 21.55 86H29.1768C30.972 86 32.5306 84.7223 32.8827 82.9618L33.2325 81.2129H51.0879L51.4377 82.9618C51.7899 84.7223 53.3483 86 55.1437 86H62.7705C64.5658 86 66.1243 84.7223 66.4764 82.9618L66.8261 81.2129H72.3943C75.8675 81.2129 78.6931 78.3873 78.6931 74.9141V6.29883C78.6933 2.82557 75.8677 0 72.3944 0ZM30.412 82.4678C30.2946 83.0545 29.7751 83.4805 29.1768 83.4805H21.55C20.9515 83.4805 20.432 83.0545 20.3147 82.4678L20.0638 81.2129H30.6631L30.412 82.4678ZM64.0058 82.4678C63.8885 83.0545 63.3688 83.4805 62.7705 83.4805H55.1437C54.5454 83.4805 54.0257 83.0545 53.9085 82.4678L53.6575 81.2129H64.257L64.0058 82.4678Z" fill="black"/>
<path d="M43 24.2295C33.9426 24.2295 26.623 31.5471 26.623 40.6064C26.623 49.6637 33.9406 56.9834 43 56.9834C52.0574 56.9834 59.377 49.6658 59.377 40.6064C59.377 31.5491 52.0594 24.2295 43 24.2295ZM51.724 39.3467C51.51 37.8734 50.9261 36.4966 50.0567 35.3314L53.6506 31.7375C55.4579 33.9011 56.5477 36.5351 56.799 39.3467H51.724ZM37.7216 47.6665C38.8582 48.5198 40.2082 49.11 41.7401 49.3309V54.4054C38.9286 54.1541 36.2947 53.0645 34.1309 51.257L37.7216 47.6665ZM44.2598 49.3306C45.733 49.1166 47.1104 48.5332 48.2756 47.6637L51.8687 51.257C49.7051 53.0644 47.0712 54.1541 44.2596 54.4054V49.3306H44.2598ZM49.2093 41.6579C48.636 45.0769 45.3793 47.3902 41.9485 46.8157C38.5295 46.2425 36.2157 42.9852 36.7907 39.555C37.0018 38.2959 37.5712 37.129 38.5466 36.1467C39.0104 35.6796 39.0321 34.9405 38.6148 34.4472C38.6164 34.446 38.6177 34.4448 38.6192 34.4438L34.1311 29.9557C36.2947 28.1484 38.9286 27.0586 41.7402 26.8073V33.1547C41.7419 33.1543 41.7438 33.1542 41.7454 33.1538C41.7989 33.8004 42.3392 34.3085 42.9995 34.3088C46.9189 34.3108 49.8498 37.8366 49.2093 41.6579ZM48.2783 33.5465C47.1369 32.6896 45.7856 32.1019 44.2598 31.882V26.8075C47.0714 27.0588 49.7051 28.1484 51.8689 29.9559L48.2783 33.5465ZM32.3494 31.7375L35.9357 35.3238C35.0806 36.459 34.4976 37.8072 34.2764 39.3467H29.201C29.4521 36.5352 30.5419 33.9011 32.3494 31.7375ZM29.2009 41.8662H34.2757C34.4897 43.3395 35.0736 44.7165 35.943 45.8815L32.3493 49.4754C30.5419 47.3118 29.4521 44.6778 29.2009 41.8662ZM53.6506 49.4754L50.0604 45.8852C50.9345 44.721 51.508 43.3668 51.7235 41.8662H56.799C56.5477 44.6777 55.4579 47.3116 53.6506 49.4754Z" fill="black"/>
<path d="M67.3554 10.0781H18.6448C17.949 10.0781 17.385 10.642 17.385 11.3379V69.875C17.385 70.5709 17.949 71.1348 18.6448 71.1348H67.3554C68.0513 71.1348 68.6151 70.5709 68.6151 69.875V65.3398H69.8749C70.5708 65.3398 71.1347 64.776 71.1347 64.0801V50.6426C71.1347 49.9467 70.5708 49.3828 69.8749 49.3828H68.6151V31.8301H69.8749C70.5708 31.8301 71.1347 31.2662 71.1347 30.5703V17.1328C71.1347 16.4369 70.5708 15.873 69.8749 15.873H68.6151V11.3379C68.6151 10.642 68.0511 10.0781 67.3554 10.0781ZM68.6151 29.3105H66.0956V26.3711C66.0956 25.6752 65.5317 25.1113 64.8358 25.1113C64.14 25.1113 63.5761 25.6752 63.5761 26.3711V30.5703C63.5761 31.2662 64.14 31.8301 64.8358 31.8301H66.0956V49.3828H64.8358C64.14 49.3828 63.5761 49.9467 63.5761 50.6426V54.8418C63.5761 55.5377 64.14 56.1016 64.8358 56.1016C65.5317 56.1016 66.0956 55.5377 66.0956 54.8418V51.9023H68.6151V62.8203H66.0956V59.8809C66.0956 59.185 65.5317 58.6211 64.8358 58.6211C64.14 58.6211 63.5761 59.185 63.5761 59.8809V64.0801C63.5761 64.776 64.14 65.3398 64.8358 65.3398H66.0956V68.6152H19.9045V12.5977H66.0956V15.873H64.8358C64.14 15.873 63.5761 16.4369 63.5761 17.1328V21.332C63.5761 22.0279 64.14 22.5918 64.8358 22.5918C65.5317 22.5918 66.0956 22.0279 66.0956 21.332V18.3926H68.6151V29.3105Z" fill="black"/>
</svg>
