<svg width="86" height="86" viewBox="0 0 86 86" fill="none" xmlns="http://www.w3.org/2000/svg">
<g clip-path="url(#clip0)">
<path d="M10.1575 11.7952C10.1575 12.7302 9.39956 13.4881 8.46457 13.4881C7.52957 13.4881 6.77165 12.7302 6.77165 11.7952C6.77165 10.8602 7.52957 10.1023 8.46457 10.1023C9.39956 10.1023 10.1575 10.8602 10.1575 11.7952ZM17.7756 11.7952C17.7756 12.7302 17.0177 13.4881 16.0827 13.4881C15.1477 13.4881 14.3898 12.7302 14.3898 11.7952C14.3898 10.8602 15.1477 10.1023 16.0827 10.1023C17.0177 10.1023 17.7756 10.8602 17.7756 11.7952ZM25.3937 11.7952C25.3937 12.7302 24.6358 13.4881 23.7008 13.4881C22.7658 13.4881 22.0079 12.7302 22.0079 11.7952C22.0079 10.8602 22.7658 10.1023 23.7008 10.1023C24.6358 10.1023 25.3937 10.8602 25.3937 11.7952ZM36.3976 63.5984C35.463 63.5984 34.7047 64.3585 34.7047 65.2913C34.7047 66.2241 35.463 66.9842 36.3976 66.9842C37.3304 66.9842 38.0905 66.2241 38.0905 65.2913C38.0905 64.3585 37.3304 63.5984 36.3976 63.5984ZM33.8583 25.3385V50.2244C33.8583 51.1592 33.1002 51.9173 32.1654 51.9173H8.46457C7.52974 51.9173 6.77165 51.1592 6.77165 50.2244V25.3385C6.77165 24.4037 7.52974 23.6456 8.46457 23.6456H32.1654C33.1002 23.6456 33.8583 24.4037 33.8583 25.3385ZM30.4724 27.0314H10.1575V48.5314H30.4724V27.0314ZM38.937 28.2165H56.374C57.3088 28.2165 58.0669 27.4584 58.0669 26.5236C58.0669 25.5887 57.3088 24.8307 56.374 24.8307H38.937C38.0022 24.8307 37.2441 25.5887 37.2441 26.5236C37.2441 27.4584 38.0022 28.2165 38.937 28.2165ZM38.937 34.9881H52.9882C53.923 34.9881 54.6811 34.2301 54.6811 33.2952C54.6811 32.3604 53.923 31.6023 52.9882 31.6023H38.937C38.0022 31.6023 37.2441 32.3604 37.2441 33.2952C37.2441 34.2301 38.0022 34.9881 38.937 34.9881ZM8.46457 55.3031C7.52974 55.3031 6.77165 56.0612 6.77165 56.996C6.77165 57.9308 7.52974 58.6889 8.46457 58.6889H20.315C21.2498 58.6889 22.0079 57.9308 22.0079 56.996C22.0079 56.0612 21.2498 55.3031 20.315 55.3031H8.46457ZM76.8295 52.0798C76.022 54.3686 76.0254 56.9029 76.8295 59.2036C77.1478 60.1144 78.1635 60.6273 79.1945 60.1719L81.1143 59.2781C83.3844 58.2251 86 59.7318 86 62.3134V69.5236C86 71.3936 84.4842 72.9094 82.6142 72.9094H73.0475L73.9871 74.9189C75.3516 77.8188 73.7489 80.9528 71.055 81.87C67.9405 82.9304 64.6965 82.9413 61.6691 81.8693C58.9877 80.9199 57.3733 77.8188 58.7365 74.9196L59.6765 72.9092L50.1102 72.9094C48.2433 72.9094 46.7244 71.3905 46.7244 69.5236V66.9842H44.0157C43.0811 66.9842 42.3228 66.2241 42.3228 65.2913C42.3228 64.3585 43.0811 63.5984 44.0157 63.5984H46.7244V62.3141C46.7244 59.7319 49.3403 58.2247 51.6095 59.2774L53.5298 60.1714C54.5611 60.6276 55.5768 60.1142 55.8949 59.2039C56.6989 56.9036 56.7018 54.3693 55.8949 52.0793C55.6073 51.2628 54.5992 50.6285 53.5763 51.0901L51.5397 52.0387C49.3403 53.026 46.7244 51.5624 46.7244 48.892V41.7598C46.7244 39.8898 48.2402 38.374 50.1102 38.374H59.6765L58.7365 36.3638C57.2477 32.831 59.5262 30.1955 61.6691 29.4139C65.2373 28.1127 68.4072 28.7237 69.4094 28.9443V20.2598H3.38583V63.5984H28.7189C29.6194 63.5984 30.4074 64.2755 30.4685 65.1738C30.5356 66.1594 29.7513 66.9842 28.7797 66.9842H1.69291C0.757917 66.9842 0 66.2263 0 65.2913V8.4094C0 5.60441 2.27375 3.33066 5.07874 3.33066H67.7165C70.5215 3.33066 72.7953 5.60441 72.7953 8.4094V30.4696C74.1784 31.7237 75.0621 33.8151 73.9871 36.3645L73.0475 38.374H82.6142C84.4842 38.374 86 39.8898 86 41.7598V48.892C86 51.5618 83.3844 53.0261 81.1853 52.0392L79.1488 51.0894C78.1246 50.629 77.1173 51.2621 76.8295 52.0798ZM69.4094 16.874V8.4094C69.4094 7.47593 68.65 6.71648 67.7165 6.71648H5.07874C4.14527 6.71648 3.38583 7.47593 3.38583 8.4094V16.874H69.4094ZM73.6367 50.9506C74.7675 47.751 78.3057 46.8978 80.5776 48.0202L82.6142 48.9699V41.7598H73.0475C70.4032 41.7598 68.9862 38.9986 69.9817 36.9401L70.9212 34.9289C71.3698 33.8471 70.7751 32.9196 69.9309 32.6079C67.6947 31.7826 64.9588 31.8317 62.793 32.6077C61.9464 32.9111 61.3544 33.8469 61.8035 34.9296L62.7436 36.9397C63.7382 38.9993 62.321 41.76 59.6765 41.76H50.1102V48.9694L52.1468 48.0209C54.4189 46.8986 57.9577 47.7507 59.0869 50.9503C60.155 53.9765 60.1721 57.3133 59.0869 60.3334C58.2198 62.7467 55.3473 64.669 52.1468 63.2627L50.1104 62.3143L50.1102 69.5236H59.6765C62.3156 69.5236 63.7465 72.2813 62.7436 74.3436L61.8035 76.3538C61.3217 77.4039 61.9776 78.4285 62.793 78.6756C65.2645 79.4244 67.2197 79.5228 69.9309 78.6756C70.7448 78.4212 71.402 77.4042 70.9212 76.3546L69.9817 74.3435C68.9778 72.2815 70.4083 69.5237 73.0475 69.5237H82.6142V62.3136L80.5776 63.2633C77.3763 64.6685 74.5051 62.747 73.6367 60.3329C72.5515 57.3126 72.5701 53.9758 73.6367 50.9506Z" fill="black"/>
</g>
<defs>
<clipPath id="clip0">
<rect width="86" height="86" fill="white"/>
</clipPath>
</defs>
</svg>
