<svg width="56" height="60" viewBox="0 0 56 60" fill="none" xmlns="http://www.w3.org/2000/svg">
<path d="M33.2522 15.1113H20.845C17.2123 15.1113 12.5147 17.4511 7.62102 21.6911C7.24207 22.0207 6.86313 22.3568 6.48418 22.7059C6.11177 23.0484 5.98763 23.5849 6.1771 24.0503C6.36658 24.5221 6.82393 24.8259 7.33354 24.8259H19.7408C20.0544 24.8259 20.3549 24.7095 20.5836 24.4962C20.943 24.1666 21.3023 23.8434 21.6682 23.5267C26.0457 19.7327 30.2729 17.5545 33.2587 17.5545C33.9448 17.5545 34.5001 17.0051 34.5001 16.3265C34.4936 15.6543 33.9382 15.1113 33.2522 15.1113Z" fill="url(#paint0_linear_47:188)"/>
<path d="M7.32768 24.8323C6.81807 24.8323 6.36072 24.5221 6.17124 24.0567C5.98177 23.5849 6.10591 23.0549 6.47832 22.7123C6.85727 22.3633 7.23621 22.0208 7.61516 21.6976C12.5088 17.4576 17.2064 15.1178 20.8391 15.1178H33.2529C33.9389 15.1178 34.4942 15.6672 34.4942 16.3459C34.4942 17.0245 33.9389 17.5739 33.2529 17.5739C30.267 17.5739 26.0398 19.7521 21.6623 23.5461C21.303 23.8628 20.9371 24.1795 20.5778 24.5156C20.3491 24.7289 20.0485 24.8453 19.7349 24.8453H7.32768V24.8323Z" fill="#D9883B"/>
<path d="M20.8422 16.3302C17.3794 16.3302 12.8908 18.7411 8.43492 22.6062C8.06251 22.9294 7.69663 23.259 7.32422 23.6016H19.7315C20.0973 23.259 20.4697 22.9294 20.8422 22.6062C25.2981 18.7411 29.7866 16.3302 33.2494 16.3302H20.8422Z" fill="url(#paint1_linear_47:188)"/>
<path d="M24.0338 45.619C23.5438 45.619 23.1061 45.3346 22.9035 44.9015C22.701 44.462 22.7794 43.9514 23.0995 43.5894L30.7373 34.9284C36.232 28.7365 42.2037 20.5861 39.5706 12.4615C37.1794 5.0738 29.3652 2.45611 23.4001 2.45611C22.714 2.45611 22.1587 1.90671 22.1587 1.22805C22.1587 0.549392 22.714 0 23.4001 0H35.8008C45.0262 0 54.9115 5.71368 55.0813 16.3008C55.2055 23.9729 50.3118 30.5656 45.0066 36.5378L37.3754 45.1988C37.1402 45.4638 36.8004 45.619 36.4411 45.619H24.0338Z" fill="url(#paint2_linear_47:188)"/>
<path d="M53.8463 16.32C53.6895 6.64427 44.7581 1.22791 35.8006 1.22791H23.3999C30.7567 1.22791 38.3814 4.75048 40.753 12.0865C43.6213 20.922 37.2315 29.4731 31.6714 35.7362L24.0337 44.3972H36.4409L44.0786 35.7362C48.8089 30.3974 53.9639 23.7982 53.8463 16.32Z" fill="url(#paint3_linear_47:188)"/>
<path d="M42.1384 59.9936C41.4523 59.9936 40.897 59.4442 40.897 58.7656V44.3909C40.897 43.7122 41.4523 43.1628 42.1384 43.1628H54.5456C55.2316 43.1628 55.787 43.7122 55.787 44.3909V58.772C55.787 59.4507 55.2316 60.0001 54.5456 60.0001H42.1384V59.9936Z" fill="url(#paint4_linear_47:188)"/>
<path d="M54.543 44.3879H42.1357V58.7691H54.543V44.3879Z" fill="url(#paint5_linear_47:188)"/>
<path d="M3.23053 59.9937C2.55104 59.9937 1.99569 59.4507 1.98916 58.7721L1.91075 46.9827C1.91075 46.6919 2.00876 46.4075 2.19823 46.1877L19.5448 25.731C21.6813 23.2038 23.0076 20.7412 23.0076 19.3192C23.0076 18.4531 22.7528 17.5612 20.845 17.5612C17.5782 17.5612 12.959 20.0884 8.17644 24.4964C7.94777 24.7097 7.64069 24.8261 7.33361 24.8261C7.24868 24.8261 7.17027 24.8196 7.08534 24.8002C6.69332 24.7227 6.36011 24.4577 6.19677 24.0957L0.107489 10.6065C-0.121186 10.0959 0.0225526 9.49479 0.466835 9.14577C8.28751 2.99257 15.7946 0 23.3996 0C34.572 0 42.6802 6.97405 42.6802 16.5787C42.6802 24.212 37.2965 31.2572 32.6054 36.5378L26.7644 43.1564H42.1379C42.8239 43.1564 43.3793 43.7058 43.3793 44.3844V58.7656C43.3793 59.4443 42.8239 59.9937 42.1379 59.9937H3.23053Z" fill="url(#paint6_linear_47:188)"/>
<path d="M23.3967 1.22534C33.6479 1.22534 41.4359 7.36561 41.4359 16.576C41.4359 23.1364 37.2609 29.4318 31.6682 35.7272L24.0305 44.3882H42.1284V58.7694H3.2276L3.1492 46.9736L20.4958 26.5168C22.5473 24.0865 24.2461 21.262 24.2461 19.3165C24.2461 17.3969 23.0308 16.3369 20.8421 16.3369C17.0918 16.3369 12.1394 19.1614 7.32415 23.6018L1.23486 10.1061C8.31071 4.53462 15.6022 1.22534 23.3967 1.22534Z" fill="url(#paint7_linear_47:188)"/>
<path d="M4.45831 57.5426L4.39297 47.4209L21.4456 27.3131C22.6608 25.8718 25.4899 22.207 25.4899 19.3243C25.4899 16.726 23.7127 15.1166 20.8445 15.1166C17.2118 15.1166 12.6122 17.3982 7.76429 21.5671L2.76611 10.4823C9.85503 5.07887 16.6173 2.45471 23.3991 2.45471C33.2909 2.45471 40.2034 8.26535 40.2034 16.5773C40.2034 21.8967 37.2895 27.5523 30.7494 34.9206L23.1051 43.5816C22.785 43.9435 22.7131 44.4606 22.9091 44.8937C23.1116 45.3332 23.5494 45.6111 24.0394 45.6111H40.896V57.5362H4.45831V57.5426Z" fill="url(#paint8_linear_47:188)"/>
<defs>
<linearGradient id="paint0_linear_47:188" x1="20.2892" y1="15.1084" x2="20.2892" y2="24.83" gradientUnits="userSpaceOnUse">
<stop stop-color="#663307"/>
<stop offset="0.3387" stop-color="#B58317"/>
<stop offset="0.5269" stop-color="#E6C738"/>
<stop offset="1" stop-color="#B58317"/>
</linearGradient>
<linearGradient id="paint1_linear_47:188" x1="20.2866" y1="16.3333" x2="20.2866" y2="23.6007" gradientUnits="userSpaceOnUse">
<stop stop-color="#663307"/>
<stop offset="0.3387" stop-color="#C26D1E"/>
<stop offset="0.5269" stop-color="#E6B538"/>
<stop offset="1" stop-color="#B56C17"/>
</linearGradient>
<linearGradient id="paint2_linear_47:188" x1="38.6124" y1="45.6182" x2="38.6124" y2="0" gradientUnits="userSpaceOnUse">
<stop stop-color="#663307"/>
<stop offset="0.3387" stop-color="#B56317"/>
<stop offset="0.5269" stop-color="#F0BC35"/>
<stop offset="1" stop-color="#B58317"/>
</linearGradient>
<linearGradient id="paint3_linear_47:188" x1="38.6154" y1="44.3973" x2="38.6154" y2="1.22741" gradientUnits="userSpaceOnUse">
<stop stop-color="#D94111"/>
<stop offset="0.3387" stop-color="#AF5717"/>
<stop offset="0.5269" stop-color="#FEBF1E"/>
<stop offset="1" stop-color="#C55D11"/>
</linearGradient>
<linearGradient id="paint4_linear_47:188" x1="48.3392" y1="59.9968" x2="48.3392" y2="43.1625" gradientUnits="userSpaceOnUse">
<stop stop-color="#663307"/>
<stop offset="0.3387" stop-color="#B58317"/>
<stop offset="0.5269" stop-color="#E6C738"/>
<stop offset="1" stop-color="#B58317"/>
</linearGradient>
<linearGradient id="paint5_linear_47:188" x1="48.3358" y1="58.7691" x2="48.3358" y2="44.3878" gradientUnits="userSpaceOnUse">
<stop stop-color="#D94111"/>
<stop offset="0.3387" stop-color="#AF5717"/>
<stop offset="0.5269" stop-color="#FEBF1E"/>
<stop offset="1" stop-color="#C55D11"/>
</linearGradient>
<linearGradient id="paint6_linear_47:188" x1="21.6868" y1="0" x2="21.6868" y2="59.9926" gradientUnits="userSpaceOnUse">
<stop stop-color="#F8D06A"/>
<stop offset="0.3387" stop-color="#D57A2F"/>
<stop offset="0.5269" stop-color="#F5DE8B"/>
<stop offset="0.8172" stop-color="#B56C17"/>
<stop offset="1" stop-color="#B56317"/>
</linearGradient>
<linearGradient id="paint7_linear_47:188" x1="21.6788" y1="1.22469" x2="21.6788" y2="58.7695" gradientUnits="userSpaceOnUse">
<stop stop-color="#F5D78B"/>
<stop offset="0.1075" stop-color="#F6A020"/>
<stop offset="0.4677" stop-color="#FFEA7A"/>
<stop offset="0.6129" stop-color="#B55017"/>
<stop offset="0.8065" stop-color="#DE9322"/>
<stop offset="1" stop-color="#F5EA8B"/>
</linearGradient>
<linearGradient id="paint8_linear_47:188" x1="21.828" y1="2.453" x2="21.828" y2="57.5433" gradientUnits="userSpaceOnUse">
<stop stop-color="#E99518"/>
<stop offset="0.1075" stop-color="#FCB11F"/>
<stop offset="0.3925" stop-color="#FFDE32"/>
<stop offset="0.4677" stop-color="#FEC351"/>
<stop offset="0.5484" stop-color="#E69824"/>
<stop offset="0.8065" stop-color="#ECA721"/>
<stop offset="1" stop-color="#F6A020"/>
</linearGradient>
</defs>
</svg>
