<svg width="55" height="61" viewBox="0 0 55 61" fill="none" xmlns="http://www.w3.org/2000/svg">
<path d="M20.0655 46.5696C15.2891 46.5696 10.627 43.66 6.58109 38.1454C6.30797 37.776 6.26351 37.277 6.46676 36.8558C6.67001 36.4411 7.08921 36.1754 7.54652 36.1754H19.6082C19.9893 36.1754 20.3449 36.3569 20.5736 36.6679C23.7748 41.0226 27.1983 43.4915 30.7425 43.997C31.1998 44.0618 31.6571 44.1006 32.1271 44.1006C32.794 44.1006 33.3339 44.6514 33.3339 45.3319C33.3339 46.0123 32.794 46.5631 32.1271 46.5631H20.0655V46.5696Z" fill="url(#paint0_linear_47:204)"/>
<path d="M30.5708 45.2214C25.9469 44.5604 22.2947 41.0805 19.6017 37.4128H7.54004C10.538 41.4953 14.7681 45.338 20.059 45.338H32.1206C31.5998 45.338 31.0853 45.2926 30.5708 45.2214Z" fill="url(#paint1_linear_47:204)"/>
<path d="M27.8269 25.1783C27.3442 25.1783 26.906 24.8802 26.7154 24.4266C26.5249 23.973 26.6265 23.4481 26.9631 23.0917L38.1863 11.3302C38.415 11.0905 38.7262 10.9609 39.0502 10.9609H51.1118C51.5945 10.9609 52.0328 11.259 52.2233 11.7126C52.4139 12.1662 52.3122 12.6911 51.9756 13.0475L40.7524 24.8025C40.5237 25.0422 40.2125 25.1718 39.8886 25.1718H27.8269V25.1783Z" fill="url(#paint2_linear_47:204)"/>
<path d="M39.0475 12.1832H51.1091L39.8859 23.9447H27.8242L39.0475 12.1832Z" fill="url(#paint3_linear_47:204)"/>
<path d="M39.0501 13.4168C38.3831 13.4168 37.8433 12.8659 37.8433 12.1855V1.66824C37.8433 0.987824 38.3831 0.437012 39.0501 0.437012H51.1117C51.7786 0.437012 52.3185 0.987824 52.3185 1.66824V12.1855C52.3185 12.8659 51.7786 13.4168 51.1117 13.4168H39.0501Z" fill="url(#paint4_linear_47:204)"/>
<path d="M51.11 1.66595H39.0483V12.1832H51.11V1.66595Z" fill="url(#paint5_linear_47:204)"/>
<path d="M21.3606 60.4369C20.6937 60.4369 20.1538 59.8861 20.1538 59.2057C20.1538 58.5252 20.6937 57.9744 21.3606 57.9744C28.106 57.9744 36.8902 54.7732 39.4435 45.7399C40.752 41.1001 40.2375 36.0262 38.0589 32.1575C36.2106 28.8721 33.327 26.6429 29.732 25.7162L27.528 25.1395C26.9373 24.984 26.5562 24.4073 26.6324 23.7916C26.7086 23.176 27.2231 22.7159 27.8265 22.7159H39.8881C39.9898 22.7159 40.0914 22.7289 40.1867 22.7548L42.3843 23.3316C50.2476 25.5478 55.043 32.6695 54.6174 41.4954C54.0839 52.4728 45.1663 60.4369 33.4159 60.4369H21.3606Z" fill="url(#paint6_linear_47:204)"/>
<path d="M53.4118 41.4306C53.7929 33.5313 49.6581 26.6494 42.087 24.5239L39.8894 23.9471H27.8277L30.0254 24.5239C39.3685 26.9345 43.1223 37.1472 40.6007 46.0833C38.1427 54.7927 29.8221 59.2056 21.3618 59.2056H33.4235C43.8527 59.2056 52.8783 52.4339 53.4118 41.4306Z" fill="url(#paint7_linear_47:204)"/>
<path d="M21.3603 60.4368C13.6432 60.4368 5.60845 57.43 0.393808 52.5828C0.00636236 52.2264 -0.107966 51.6497 0.107988 51.1637L6.44686 36.9009C6.6247 36.5056 6.99309 36.2334 7.4123 36.1881C7.45676 36.1816 7.50122 36.1816 7.54568 36.1816C7.92042 36.1816 8.28246 36.363 8.51112 36.6741C12.1315 41.6055 16.0187 44.1133 20.0646 44.1133C24.0407 44.1133 24.5742 42.2405 24.5742 40.4066C24.5742 38.6376 24.0598 36.6093 20.0646 36.6093H11.039C10.3721 36.6093 9.83225 36.0585 9.83225 35.378V25.6578C9.83225 25.3532 9.94022 25.0616 10.1435 24.8348L17.4859 16.5273H3.81731C3.15039 16.5273 2.61051 15.9765 2.61051 15.2961V1.6683C2.61051 0.987885 3.15039 0.437073 3.81731 0.437073H39.0495C39.7164 0.437073 40.2563 0.987885 40.2563 1.6683V12.1856C40.2563 12.5031 40.1356 12.8142 39.9133 13.041L30.1446 23.2796L30.3288 23.325C37.8871 25.2755 42.5873 31.7816 42.5873 40.3094C42.5873 52.3496 34.0571 60.4368 21.3603 60.4368Z" fill="url(#paint8_linear_47:204)"/>
<path d="M39.0497 1.66833V12.1856L27.8265 23.9471L30.0241 24.5238C36.6425 26.2281 41.3807 31.8075 41.3807 40.3159C41.3807 51.4359 33.5429 59.2056 21.3606 59.2056C13.8594 59.2056 6.09774 56.2182 1.20703 51.6756L7.53955 37.4128C11.395 42.6618 15.587 45.3445 20.0585 45.3445C23.8377 45.3445 25.7749 43.731 25.7749 40.4067C25.7749 37.0824 23.8377 35.3781 20.0585 35.3781H11.0393V25.6578L20.1919 15.2961H3.81753V1.66833H39.0497Z" fill="url(#paint9_linear_47:204)"/>
<path d="M21.3606 57.9743C14.647 57.9743 7.41894 55.3952 2.67432 51.3516L7.82544 39.7522C11.5919 44.2818 15.7014 46.5693 20.0586 46.5693C26.0799 46.5693 26.9818 42.7071 26.9818 40.4002C26.9818 38.0608 26.0799 34.1403 20.0586 34.1403H12.2461V26.1244L21.0875 16.1126C21.4051 15.7497 21.4877 15.2313 21.2908 14.7906C21.0939 14.3435 20.6683 14.0584 20.1856 14.0584H5.0244V2.89954H37.843V11.6866L26.9627 23.0852C26.6642 23.3963 26.5499 23.8499 26.6642 24.2776C26.7785 24.6988 27.1088 25.0292 27.528 25.1394L29.7257 25.7161C36.2678 27.401 40.174 32.8573 40.174 40.3159C40.174 50.8786 32.6156 57.9743 21.3606 57.9743Z" fill="url(#paint10_linear_47:204)"/>
<defs>
<linearGradient id="paint0_linear_47:204" x1="19.8327" y1="36.1816" x2="19.8327" y2="46.5711" gradientUnits="userSpaceOnUse">
<stop stop-color="#B58317"/>
<stop offset="0.4731" stop-color="#E6C738"/>
<stop offset="0.6613" stop-color="#B58317"/>
<stop offset="1" stop-color="#663307"/>
</linearGradient>
<linearGradient id="paint1_linear_47:204" x1="19.8301" y1="37.4162" x2="19.8301" y2="45.337" gradientUnits="userSpaceOnUse">
<stop stop-color="#663307"/>
<stop offset="0.3387" stop-color="#C26D1E"/>
<stop offset="0.5269" stop-color="#E6B538"/>
<stop offset="1" stop-color="#B56C17"/>
</linearGradient>
<linearGradient id="paint2_linear_47:204" x1="39.4625" y1="25.1781" x2="39.4625" y2="10.9609" gradientUnits="userSpaceOnUse">
<stop stop-color="#663307"/>
<stop offset="0.3387" stop-color="#B56317"/>
<stop offset="0.5269" stop-color="#F0BC35"/>
<stop offset="1" stop-color="#B58317"/>
</linearGradient>
<linearGradient id="paint3_linear_47:204" x1="39.46" y1="23.9447" x2="39.46" y2="12.1831" gradientUnits="userSpaceOnUse">
<stop stop-color="#D94111"/>
<stop offset="0.3387" stop-color="#AF5717"/>
<stop offset="0.5269" stop-color="#FEBF1E"/>
<stop offset="1" stop-color="#C55D11"/>
</linearGradient>
<linearGradient id="paint4_linear_47:204" x1="45.077" y1="13.4165" x2="45.077" y2="0.437012" gradientUnits="userSpaceOnUse">
<stop stop-color="#663307"/>
<stop offset="0.3387" stop-color="#B56317"/>
<stop offset="0.5269" stop-color="#F0BC35"/>
<stop offset="1" stop-color="#B58317"/>
</linearGradient>
<linearGradient id="paint5_linear_47:204" x1="45.0757" y1="12.1833" x2="45.0757" y2="1.66583" gradientUnits="userSpaceOnUse">
<stop stop-color="#D94111"/>
<stop offset="0.3387" stop-color="#AF5717"/>
<stop offset="0.5269" stop-color="#FEBF1E"/>
<stop offset="1" stop-color="#C55D11"/>
</linearGradient>
<linearGradient id="paint6_linear_47:204" x1="37.3895" y1="60.4362" x2="37.3895" y2="22.7159" gradientUnits="userSpaceOnUse">
<stop stop-color="#663307"/>
<stop offset="0.3387" stop-color="#B56317"/>
<stop offset="0.5269" stop-color="#F0BC35"/>
<stop offset="1" stop-color="#B58317"/>
</linearGradient>
<linearGradient id="paint7_linear_47:204" x1="37.3898" y1="59.2057" x2="37.3898" y2="23.9467" gradientUnits="userSpaceOnUse">
<stop stop-color="#D94111"/>
<stop offset="0.3387" stop-color="#AF5717"/>
<stop offset="0.5269" stop-color="#FEBF1E"/>
<stop offset="1" stop-color="#C55D11"/>
</linearGradient>
<linearGradient id="paint8_linear_47:204" x1="21.2908" y1="0.437073" x2="21.2908" y2="60.4357" gradientUnits="userSpaceOnUse">
<stop stop-color="#F8D06A"/>
<stop offset="0.3387" stop-color="#D57A2F"/>
<stop offset="0.5269" stop-color="#F5DE8B"/>
<stop offset="0.8172" stop-color="#B56C17"/>
<stop offset="1" stop-color="#B56317"/>
</linearGradient>
<linearGradient id="paint9_linear_47:204" x1="21.2911" y1="1.66768" x2="21.2911" y2="59.2057" gradientUnits="userSpaceOnUse">
<stop stop-color="#F5D78B"/>
<stop offset="0.1075" stop-color="#F6A020"/>
<stop offset="0.4677" stop-color="#FFEA7A"/>
<stop offset="0.6129" stop-color="#B55017"/>
<stop offset="0.8065" stop-color="#DE9322"/>
<stop offset="1" stop-color="#F5EA8B"/>
</linearGradient>
<linearGradient id="paint10_linear_47:204" x1="21.4211" y1="2.89783" x2="21.4211" y2="57.975" gradientUnits="userSpaceOnUse">
<stop stop-color="#E99518"/>
<stop offset="0.1075" stop-color="#FCB11F"/>
<stop offset="0.3925" stop-color="#FFDE32"/>
<stop offset="0.4677" stop-color="#FEC351"/>
<stop offset="0.5484" stop-color="#E69824"/>
<stop offset="0.8065" stop-color="#ECA721"/>
<stop offset="1" stop-color="#F6A020"/>
</linearGradient>
</defs>
</svg>
