<svg width="875" height="875" viewBox="0 0 875 875" fill="none" xmlns="http://www.w3.org/2000/svg">
<g opacity="0.1">
<path fill-rule="evenodd" clip-rule="evenodd" d="M860.379 262.598L685.516 437.402L860.575 612.402C879.808 631.628 879.808 662.626 860.575 681.853L681.787 860.58C672.171 870.193 659.611 874.902 647.051 874.902C634.49 874.902 621.93 870.193 612.314 860.58L437.451 685.776L262.588 860.58C243.355 879.807 212.347 879.807 193.114 860.58L14.3266 681.853C5.1026 672.632 0 660.272 0 647.127C0 633.983 5.1026 621.623 14.3266 612.402L189.189 437.402L14.3266 262.598C5.1026 253.377 0 241.017 0 227.873C0 214.728 5.1026 202.368 14.3266 193.147L193.114 14.4198C212.347 -4.80661 243.355 -4.80661 262.588 14.4198L437.255 189.224L612.117 14.4198C621.341 5.19899 633.705 0.0980941 646.854 0.0980941C660.003 0.0980941 672.367 5.19899 681.591 14.4198L860.379 193.147C879.612 212.374 879.612 243.372 860.379 262.598ZM437.5 259.165L646.57 50.0953L824.905 228.431L615.836 437.5L824.905 646.569L646.57 824.905L437.5 615.835L228.431 824.905L50.0958 646.569L259.361 437.5L50.0958 228.431L228.431 50.0953L437.5 259.165Z" fill="white"/>
</g>
</svg>
