<svg width="292" height="49" viewBox="0 0 292 49" fill="none" xmlns="http://www.w3.org/2000/svg">
<g clip-path="url(#clip0_15:456)">
<path d="M0 13.65L4.38 21.37L11 17.34V44.36H22.18V4.78003H13.25L0 13.65Z" fill="white"/>
<path d="M126.32 14.58H115.2V44.36H126.32V14.58Z" fill="white"/>
<path d="M120.85 0C117.62 0 115.09 2.65 115.09 5.65C115.09 8.76 117.62 11.41 120.85 11.41C123.96 11.41 126.5 8.76 126.5 5.65C126.49 2.65 123.96 0 120.85 0Z" fill="white"/>
<path d="M147.46 35.83C145.96 35.83 144.93 34.56 144.93 32.78V23.33H150.81V14.57H144.93V6.39001H134.33V14.57H130.59V23.33H134.33V34.97C134.33 40.9 138.48 45.05 144.41 45.05C147.06 45.05 150.23 43.78 152.07 42L150.17 34.97C149.59 35.49 148.5 35.83 147.46 35.83Z" fill="white"/>
<path d="M162.73 31.74C158.87 31.74 155.93 34.79 155.93 38.25C155.93 41.99 158.87 45.05 162.73 45.05C166.3 45.05 169.24 42 169.24 38.25C169.24 34.8 166.3 31.74 162.73 31.74Z" fill="white"/>
<path d="M189.97 35.83C186.57 35.83 183.75 32.89 183.75 29.38C183.75 25.98 186.57 23.1 189.91 23.1C191.81 23.1 193.94 24.08 195.09 25.4L202.41 19.41C199.53 16.07 195.32 13.88 190.02 13.88C180.86 13.88 173.14 20.97 173.14 29.43C173.14 37.9 180.8 45.04 189.85 45.04C195.38 45.04 199.59 42.79 202.58 39.34L195.26 33.46C194.06 34.85 191.87 35.83 189.97 35.83Z" fill="white"/>
<path d="M221.14 13.88C211.98 13.88 204.32 20.97 204.32 29.43C204.32 37.9 211.98 45.04 221.14 45.04C230.24 45.04 237.9 37.9 237.9 29.43C237.9 20.97 230.24 13.88 221.14 13.88ZM221.14 35.83C217.63 35.83 214.69 32.89 214.69 29.44C214.69 25.98 217.63 23.1 221.14 23.1C224.6 23.1 227.53 25.98 227.53 29.44C227.53 32.89 224.59 35.83 221.14 35.83Z" fill="white"/>
<path d="M280.18 13.88C275.8 13.88 272.23 15.78 270.5 18.78C268.48 15.73 265.03 13.88 261.17 13.88C257.66 13.88 254.89 15.55 253.45 18.2V14.57H242.33V44.35H253.45V27.08C253.45 24.78 255.18 23.11 257.66 23.11C260.14 23.11 261.87 24.9 261.87 27.43V44.42H272.47V27.08C272.47 24.78 274.2 23.11 276.68 23.11C279.16 23.11 280.89 24.9 280.89 27.43V44.42H291.49V25.41C291.47 18.67 286.41 13.88 280.18 13.88Z" fill="white"/>
<path d="M103.16 23.62C106.62 21.95 108.63 18.61 108.63 14.75C108.63 9.16997 103.72 5.05997 96.5598 4.79997V0.339966H84.7098V4.77997H74.5298V44.36H84.7098V48.95H96.5698V44.36H96.6598C104.73 44.36 110.49 40.04 110.49 33.7C110.48 29.32 107.77 25.58 103.16 23.62ZM85.6498 14.17H93.1398C95.4398 14.17 97.1198 15.44 97.1198 17.17C97.1198 18.9 95.4498 20.17 93.1398 20.17H85.6498V14.17ZM94.8098 34.97H85.6498V28.63H94.8098C97.2298 28.63 98.9598 29.96 98.9598 31.8C98.9598 33.64 97.2298 34.97 94.8098 34.97Z" fill="white"/>
<path d="M58.99 4.78003L48.31 15.46L37.63 4.78003L28.52 13.89L39.21 24.57L28.52 35.25L37.63 44.36L48.31 33.68L58.99 44.36L68.1 35.25L57.42 24.57L68.1 13.89L58.99 4.78003Z" fill="#E07631"/>
</g>
<defs>
<clipPath id="clip0_15:456">
<rect width="291.47" height="48.95" fill="white"/>
</clipPath>
</defs>
</svg>
