<svg width="174" height="36" viewBox="0 0 174 36" fill="none" xmlns="http://www.w3.org/2000/svg">
<g clip-path="url(#clip0_11_110)">
<path d="M11.3705 15.4481L18.0961 8.72525L24.8243 15.4535L28.7355 11.5396L18.0961 0.897461L7.4566 11.5369L11.3705 15.4481Z" fill="#F3BA2F"/>
<path d="M4.69308 14.2997L0.780655 18.2122L4.69308 22.1246L8.60551 18.2122L4.69308 14.2997Z" fill="#F3BA2F"/>
<path d="M11.3705 20.9756L18.096 27.7012L24.8243 20.9729L28.7382 24.8813L28.7355 24.8841L18.096 35.5262L7.4566 24.8895L7.45113 24.8841L11.3705 20.9756Z" fill="#F3BA2F"/>
<path d="M31.4953 14.3002L27.5828 18.2126L31.4953 22.1251L35.4077 18.2126L31.4953 14.3002Z" fill="#F3BA2F"/>
<path d="M22.0646 18.2103L18.096 14.239L15.1613 17.1738L14.8222 17.5102L14.1274 18.2049L14.122 18.2131L14.1274 18.2186L18.096 22.1844L22.0646 18.2131H22.0674L22.0646 18.2103Z" fill="#F3BA2F"/>
<path d="M41.511 9.28857H50.0226C52.1341 9.28857 53.7314 9.83012 54.8144 10.9159C55.6514 11.7556 56.0698 12.7977 56.0698 14.0367V14.0886C56.0698 14.6138 56.0042 15.076 55.8757 15.4781C55.7444 15.8801 55.5721 16.2439 55.3533 16.5666C55.1372 16.8894 54.8856 17.1738 54.5984 17.42C54.3112 17.6661 54.0021 17.874 53.6739 18.049C54.7351 18.4511 55.5721 18.9981 56.182 19.6901C56.7919 20.382 57.0955 21.3393 57.0955 22.5619V22.6139C57.0955 23.4535 56.9341 24.1865 56.6114 24.8183C56.2887 25.4474 55.8264 25.9725 55.222 26.391C54.6203 26.8122 53.8955 27.124 53.0476 27.3346C52.1997 27.5452 51.2616 27.6491 50.2332 27.6491H41.511V9.28857ZM49.1692 16.7116C50.0609 16.7116 50.7693 16.5584 51.2944 16.2521C51.8195 15.9458 52.0821 15.4507 52.0821 14.7697V14.7177C52.0821 14.105 51.8551 13.6373 51.4011 13.3146C50.947 12.9919 50.2906 12.8278 49.4346 12.8278H45.4441V16.7088C45.4441 16.7116 49.1692 16.7116 49.1692 16.7116ZM50.2469 24.11C51.1385 24.11 51.8387 23.9486 52.3447 23.6258C52.8507 23.3031 53.105 22.7999 53.105 22.1161V22.0641C53.105 21.4515 52.8698 20.9674 52.3966 20.6091C51.9235 20.2508 51.1631 20.073 50.1128 20.073H45.4441V24.1127L50.2469 24.11Z" fill="white"/>
<path d="M62.1609 9.28857H66.2006V27.6519H62.1609V9.28857Z" fill="white"/>
<path d="M72.3217 9.28857H76.0469L84.6514 20.5954V9.28857H88.6392V27.6519H85.2039L76.3094 15.9786V27.6519H72.3217V9.28857Z" fill="white"/>
<path d="M100.868 9.15747H104.593L112.464 27.6521H108.241L106.562 23.533H98.7972L97.1179 27.6521H92.9989L100.868 9.15747ZM105.118 19.9665L102.678 14.0122L100.239 19.9665H105.118Z" fill="white"/>
<path d="M116.824 9.28857H120.549L129.154 20.5954V9.28857H133.142V27.6519H129.706L120.812 15.9786V27.6519H116.824V9.28857Z" fill="white"/>
<path d="M147.681 27.9665C146.333 27.9665 145.083 27.7203 143.929 27.2335C142.775 26.7467 141.779 26.0738 140.939 25.2259C140.1 24.3781 139.443 23.377 138.973 22.2228C138.5 21.0686 138.264 19.8351 138.264 18.5223V18.4703C138.264 17.1575 138.5 15.9294 138.973 14.7834C139.446 13.6374 140.1 12.6337 140.939 11.7666C141.779 10.8996 142.785 10.2186 143.956 9.7208C145.127 9.22301 146.423 8.97412 147.84 8.97412C148.696 8.97412 149.478 9.04523 150.187 9.18472C150.895 9.32421 151.538 9.5184 152.115 9.76182C152.692 10.008 153.225 10.3034 153.715 10.6535C154.204 11.0035 154.658 11.3892 155.08 11.8077L152.509 14.7725C151.789 14.1243 151.062 13.6183 150.318 13.2518C149.574 12.8853 148.74 12.702 147.813 12.702C147.044 12.702 146.33 12.8497 145.674 13.1478C145.017 13.446 144.454 13.8562 143.981 14.3814C143.51 14.9065 143.141 15.5137 142.878 16.2057C142.616 16.8976 142.485 17.6361 142.485 18.4211V18.473C142.485 19.2607 142.616 20.0047 142.878 20.7021C143.141 21.4023 143.502 22.015 143.967 22.5374C144.429 23.0625 144.99 23.4782 145.646 23.7846C146.303 24.0909 147.025 24.2441 147.81 24.2441C148.86 24.2441 149.746 24.0526 150.471 23.667C151.196 23.284 151.918 22.7589 152.635 22.0943L155.205 24.6926C154.732 25.2013 154.243 25.6554 153.737 26.0574C153.231 26.4595 152.673 26.8041 152.071 27.094C151.467 27.3812 150.807 27.6027 150.091 27.7504C149.377 27.8927 148.573 27.9665 147.681 27.9665Z" fill="white"/>
<path d="M159.964 9.28857H173.79V12.8825H163.952V16.6076H172.609V20.2015H163.952V24.058H173.922V27.6519H159.964V9.28857Z" fill="white"/>
</g>
<defs>
<clipPath id="clip0_11_110">
<rect width="173.141" height="34.6288" fill="white" transform="translate(0.780273 0.897461)"/>
</clipPath>
</defs>
</svg>
