<svg width="153" height="29" viewBox="0 0 153 29" fill="none" xmlns="http://www.w3.org/2000/svg">
<g clip-path="url(#clip0_11_111)">
<path d="M31.2877 8.49205C25.7556 8.49205 21.433 12.6916 21.433 18.3136C21.433 23.9356 25.6464 28.0992 31.2877 28.0992C36.9291 28.0992 41.2157 23.8637 41.2157 18.2777C41.2157 12.7275 37.0023 8.49205 31.2877 8.49205ZM31.3251 24.0475C28.1747 24.0475 25.8662 21.6008 25.8662 18.315C25.8662 14.9918 28.1374 12.5465 31.2877 12.5465C34.4754 12.5465 36.7825 15.0291 36.7825 18.315C36.7825 21.6008 34.4754 24.0475 31.3251 24.0475ZM42.4239 12.7649H45.172V27.7356H49.5678V8.85699H42.4239V12.7649ZM10.3701 12.5451C12.6786 12.5451 14.5102 13.9689 15.2056 16.0866H19.8585C19.0153 11.5595 15.2788 8.49205 10.4075 8.49205C4.87532 8.49205 0.552734 12.6916 0.552734 18.315C0.552734 23.9383 4.76611 28.1006 10.4075 28.1006C15.1696 28.1006 18.9794 25.0332 19.8226 20.4687H15.2056C14.5462 22.5864 12.7146 24.0475 10.4061 24.0475C7.21839 24.0475 4.98452 21.6008 4.98452 18.315C4.98591 14.9918 7.18383 12.5451 10.3701 12.5451ZM125.948 16.4889L122.724 16.0148C121.186 15.7963 120.087 15.2849 120.087 14.0795C120.087 12.7649 121.516 12.1083 123.457 12.1083C125.581 12.1083 126.938 13.0206 127.231 14.5177H131.48C131.003 10.7204 128.072 8.49343 123.567 8.49343C118.914 8.49343 115.837 10.8669 115.837 14.226C115.837 17.4386 117.853 19.302 121.918 19.8853L125.142 20.3595C126.718 20.5779 127.597 21.1999 127.597 22.368C127.597 23.8651 126.058 24.4857 123.934 24.4857C121.332 24.4857 119.867 23.4269 119.647 21.8206H115.324C115.728 25.5087 118.621 28.1006 123.896 28.1006C128.696 28.1006 131.882 25.9096 131.882 22.1482C131.882 18.7891 129.575 17.0363 125.948 16.4889ZM47.3699 1.07993C45.7581 1.07993 44.5485 2.24801 44.5485 3.85429C44.5485 5.46057 45.7567 6.62865 47.3699 6.62865C48.9817 6.62865 50.1913 5.46057 50.1913 3.85429C50.1913 2.24801 48.9817 1.07993 47.3699 1.07993ZM111.881 15.3208C111.881 11.2319 109.39 8.49343 104.115 8.49343C99.1331 8.49343 96.3491 11.0134 95.7989 14.884H100.159C100.379 13.3869 101.551 12.1456 104.042 12.1456C106.277 12.1456 107.376 13.1312 107.376 14.3366C107.376 15.9069 105.361 16.3078 102.87 16.5635C99.4994 16.9285 95.3234 18.0966 95.3234 22.4786C95.3234 25.875 97.8517 28.0646 101.881 28.0646C105.032 28.0646 107.01 26.75 107.999 24.6682C108.146 26.5302 109.538 27.7356 111.48 27.7356H114.044V23.8291H111.882V15.3208H111.881V15.3208ZM107.558 20.0678C107.558 22.5878 105.361 24.4498 102.686 24.4498C101.037 24.4498 99.6446 23.7559 99.6446 22.2961C99.6446 20.4341 101.88 19.9226 103.931 19.7042C105.909 19.5218 107.008 19.0836 107.558 18.2431V20.0678ZM84.2232 8.49205C81.7681 8.49205 79.7167 9.51498 78.2514 11.2305V0.897461H73.8556V27.7356H78.1782V25.2529C79.6434 27.0417 81.7322 28.1006 84.2232 28.1006C89.4982 28.1006 93.4918 23.9383 93.4918 18.315C93.4918 12.6916 89.4249 8.49205 84.2232 8.49205ZM83.5638 24.0475C80.4134 24.0475 78.1049 21.6008 78.1049 18.315C78.1049 15.0291 80.4494 12.5465 83.5997 12.5465C86.7874 12.5465 89.0213 14.9932 89.0213 18.315C89.0213 21.6008 86.7141 24.0475 83.5638 24.0475ZM63.3415 8.49205C60.4842 8.49205 58.6153 9.66013 57.5163 11.3037V8.85699H53.1564V27.7343H57.5522V17.4745C57.5522 14.5896 59.3838 12.5451 62.0946 12.5451C64.6229 12.5451 66.1974 14.3338 66.1974 16.9271V27.7356H70.5933V16.5995C70.5946 11.8511 68.141 8.49205 63.3415 8.49205ZM152.837 17.6943C152.837 12.2907 148.881 8.49343 143.568 8.49343C137.927 8.49343 133.787 12.7289 133.787 18.315C133.787 24.1941 138.22 28.1006 143.642 28.1006C148.221 28.1006 151.811 25.3981 152.726 21.5649H148.147C147.487 23.2444 145.876 24.1941 143.714 24.1941C140.892 24.1941 138.768 22.4413 138.292 19.3738H152.836V17.6943H152.837V17.6943ZM138.549 16.2332C139.246 13.604 141.224 12.3267 143.495 12.3267C145.986 12.3267 147.891 13.7505 148.331 16.2332H138.549Z" fill="white"/>
</g>
<defs>
<clipPath id="clip0_11_111">
<rect width="152.284" height="27.2031" fill="white" transform="translate(0.552734 0.897461)"/>
</clipPath>
</defs>
</svg>
