<svg width="189" height="36" viewBox="0 0 189 36" fill="none" xmlns="http://www.w3.org/2000/svg">
<g clip-path="url(#clip0_11_109)">
<path d="M166.223 18.3057C165.251 17.6651 164.169 17.2011 163.153 16.6267C162.49 16.2512 161.783 15.9308 161.22 15.4559C160.248 14.6495 160.446 13.081 161.463 12.3962C162.932 11.4241 165.351 11.9654 165.605 13.9536C165.605 13.9978 165.649 14.0199 165.693 14.0199H167.902C167.958 14.0199 168.002 13.9757 167.991 13.9205C167.88 12.5508 167.339 11.402 166.367 10.673C165.428 9.97712 164.368 9.60156 163.241 9.60156C157.398 9.60156 156.867 15.7652 160.016 17.7203C160.369 17.9522 163.462 19.4987 164.555 20.1725C165.649 20.8463 165.991 22.0724 165.516 23.0444C165.086 23.9281 163.97 24.5466 162.843 24.4804C161.628 24.4141 160.678 23.7513 160.347 22.7241C160.292 22.5363 160.259 22.1828 160.259 22.0282C160.259 21.984 160.214 21.9398 160.17 21.9398H157.773C157.729 21.9398 157.685 21.984 157.685 22.0282C157.685 23.7624 158.116 24.7234 159.298 25.596C160.402 26.4244 161.606 26.7668 162.854 26.7668C166.124 26.7668 167.814 24.9222 168.167 23.0002C168.466 21.1114 167.902 19.4324 166.223 18.3057Z" fill="white"/>
<path d="M62.1712 9.92188H61.1108H59.951C59.9068 9.92188 59.8736 9.95501 59.8626 9.9771L57.8964 16.45C57.8633 16.5384 57.7528 16.5384 57.7197 16.45L55.7535 9.9771C55.7425 9.93292 55.7093 9.92188 55.6652 9.92188H54.5053H53.4449H52.009C51.9648 9.92188 51.9206 9.96606 51.9206 10.0102V26.5238C51.9206 26.568 51.9648 26.6122 52.009 26.6122H54.4059C54.4501 26.6122 54.4943 26.568 54.4943 26.5238V13.9757C54.4943 13.8763 54.6379 13.8653 54.671 13.9426L56.6482 20.4596L56.7918 20.9125C56.8029 20.9567 56.836 20.9677 56.8802 20.9677H58.7138C58.758 20.9677 58.7801 20.9346 58.8022 20.9125L58.9458 20.4596L60.923 13.9426C60.9561 13.8432 61.0997 13.8763 61.0997 13.9757V26.5238C61.0997 26.568 61.1439 26.6122 61.1881 26.6122H63.585C63.6292 26.6122 63.6734 26.568 63.6734 26.5238V10.0102C63.6734 9.96606 63.6292 9.92188 63.585 9.92188H62.1712Z" fill="white"/>
<path d="M129.529 9.92188C129.485 9.92188 129.452 9.95501 129.441 9.9771L127.474 16.45C127.441 16.5384 127.331 16.5384 127.298 16.45L125.331 9.9771C125.32 9.93292 125.287 9.92188 125.243 9.92188H121.598C121.554 9.92188 121.51 9.96606 121.51 10.0102V26.5238C121.51 26.568 121.554 26.6122 121.598 26.6122H123.995C124.039 26.6122 124.083 26.568 124.083 26.5238V13.9757C124.083 13.8763 124.227 13.8653 124.26 13.9426L126.237 20.4596L126.381 20.9125C126.392 20.9567 126.425 20.9677 126.469 20.9677H128.303C128.347 20.9677 128.38 20.9346 128.391 20.9125L128.535 20.4596L130.512 13.9426C130.545 13.8432 130.689 13.8763 130.689 13.9757V26.5238C130.689 26.568 130.733 26.6122 130.777 26.6122H133.174C133.218 26.6122 133.262 26.568 133.262 26.5238V10.0102C133.262 9.96606 133.218 9.92188 133.174 9.92188H129.529Z" fill="white"/>
<path d="M98.6226 9.92188H94.16H91.7631H87.3006C87.2564 9.92188 87.2122 9.96606 87.2122 10.0102V12.0758C87.2122 12.12 87.2564 12.1642 87.3006 12.1642H91.6747V26.5238C91.6747 26.568 91.7189 26.6122 91.7631 26.6122H94.16C94.2042 26.6122 94.2484 26.568 94.2484 26.5238V12.1531H98.6226C98.6668 12.1531 98.7109 12.109 98.7109 12.0648V10.0102C98.7109 9.96606 98.6778 9.92188 98.6226 9.92188Z" fill="white"/>
<path d="M112.761 26.6122H114.937C114.993 26.6122 115.037 26.557 115.026 26.5018L110.519 9.92193C110.508 9.87775 110.475 9.8667 110.431 9.8667H109.602H108.133H107.305C107.26 9.8667 107.227 9.89984 107.216 9.92193L102.71 26.5018C102.698 26.557 102.743 26.6122 102.798 26.6122H104.974C105.018 26.6122 105.04 26.5791 105.062 26.557L106.366 21.73C106.377 21.6858 106.41 21.6747 106.454 21.6747H111.281C111.325 21.6747 111.358 21.7079 111.369 21.73L112.673 26.557C112.684 26.5791 112.728 26.6122 112.761 26.6122ZM107.028 19.3109L108.774 12.8601C108.807 12.7718 108.917 12.7718 108.95 12.8601L110.696 19.3109C110.707 19.3661 110.663 19.4214 110.607 19.4214H107.106C107.062 19.4324 107.017 19.3661 107.028 19.3109Z" fill="white"/>
<path d="M149.953 26.6122H152.129C152.184 26.6122 152.228 26.557 152.217 26.5018L147.71 9.92193C147.699 9.87775 147.666 9.8667 147.622 9.8667H146.794H145.336H144.507C144.463 9.8667 144.43 9.89984 144.419 9.92193L139.912 26.5018C139.901 26.557 139.945 26.6122 140 26.6122H142.176C142.221 26.6122 142.254 26.5791 142.265 26.557L143.568 21.73C143.579 21.6858 143.612 21.6747 143.657 21.6747H148.484C148.528 21.6747 148.561 21.7079 148.572 21.73L149.875 26.557C149.875 26.5791 149.909 26.6122 149.953 26.6122ZM144.22 19.3109L145.976 12.8601C146.009 12.7718 146.12 12.7718 146.153 12.8601L147.909 19.3109C147.92 19.3661 147.876 19.4214 147.821 19.4214H144.319C144.253 19.4324 144.209 19.3661 144.22 19.3109Z" fill="white"/>
<path d="M73.3938 24.1602V19.0349C73.3938 18.9907 73.438 18.9465 73.4822 18.9465H79.8667C79.9109 18.9465 79.955 18.9024 79.955 18.8582V16.8036C79.955 16.7595 79.9109 16.7153 79.8667 16.7153H73.4822C73.438 16.7153 73.3938 16.6711 73.3938 16.6269V12.2527C73.3938 12.2086 73.438 12.1644 73.4822 12.1644H80.7393C80.7835 12.1644 80.8277 12.1202 80.8277 12.076V10.0215C80.8277 9.97729 80.7835 9.93311 80.7393 9.93311H73.3938H70.9085C70.8643 9.93311 70.8201 9.97729 70.8201 10.0215V12.1644V16.7263V18.9576V24.2486V26.513C70.8201 26.5571 70.8643 26.6013 70.9085 26.6013H73.3938H81.0375C81.0817 26.6013 81.1259 26.5571 81.1259 26.513V24.3369C81.1259 24.2927 81.0817 24.2486 81.0375 24.2486H73.4601C73.4269 24.2486 73.3938 24.2265 73.3938 24.1602Z" fill="white"/>
<path d="M188.127 26.4688L179.832 17.9193C179.799 17.8861 179.799 17.8309 179.832 17.8088L187.299 10.0767C187.354 10.0215 187.31 9.93311 187.244 9.93311H184.184C184.151 9.93311 184.14 9.94415 184.129 9.96624L177.799 16.5164C177.744 16.5717 177.656 16.5275 177.656 16.4612V10.0215C177.656 9.97729 177.612 9.93311 177.567 9.93311H175.17C175.126 9.93311 175.082 9.97729 175.082 10.0215V26.535C175.082 26.5792 175.126 26.6234 175.17 26.6234H177.567C177.612 26.6234 177.656 26.5792 177.656 26.535V19.2669C177.656 19.2006 177.755 19.1564 177.799 19.2116L184.968 26.6013C184.979 26.6124 185.012 26.6345 185.023 26.6345H188.083C188.138 26.6124 188.183 26.513 188.127 26.4688Z" fill="white"/>
<path d="M35.5506 1.04102L21.0474 11.7666L23.7426 5.43727L35.5506 1.04102Z" fill="#E17726" stroke="#E17726" stroke-width="0.276147" stroke-linecap="round" stroke-linejoin="round"/>
<path d="M2.0927 1.04102L16.4744 11.877L13.9007 5.44832L2.0927 1.04102Z" fill="#E27625" stroke="#E27625" stroke-width="0.276147" stroke-linecap="round" stroke-linejoin="round"/>
<path d="M30.3259 25.9275L26.4709 31.826L34.7332 34.1014L37.097 26.06L30.3259 25.9275Z" fill="#E27625" stroke="#E27625" stroke-width="0.276147" stroke-linecap="round" stroke-linejoin="round"/>
<path d="M0.557304 26.06L2.91008 34.1014L11.1613 31.826L7.31738 25.9275L0.557304 26.06Z" fill="#E27625" stroke="#E27625" stroke-width="0.276147" stroke-linecap="round" stroke-linejoin="round"/>
<path d="M10.7195 15.964L8.42196 19.4324L16.5959 19.808L16.3198 11.0044L10.7195 15.964Z" fill="#E27625" stroke="#E27625" stroke-width="0.276147" stroke-linecap="round" stroke-linejoin="round"/>
<path d="M26.9349 15.9641L21.2352 10.894L21.0474 19.797L29.2214 19.4215L26.9349 15.9641Z" fill="#E27625" stroke="#E27625" stroke-width="0.276147" stroke-linecap="round" stroke-linejoin="round"/>
<path d="M11.1613 31.826L16.1099 29.44L11.8462 26.1152L11.1613 31.826Z" fill="#E27625" stroke="#E27625" stroke-width="0.276147" stroke-linecap="round" stroke-linejoin="round"/>
<path d="M21.5334 29.429L26.4709 31.826L25.7971 26.1152L21.5334 29.429Z" fill="#E27625" stroke="#E27625" stroke-width="0.276147" stroke-linecap="round" stroke-linejoin="round"/>
<path d="M26.4709 31.8258L21.5334 29.4399L21.9311 32.6432L21.8869 34.0019L26.4709 31.8258Z" fill="#D5BFB2" stroke="#D5BFB2" stroke-width="0.276147" stroke-linecap="round" stroke-linejoin="round"/>
<path d="M11.1613 31.8258L15.7564 34.0019L15.7233 32.6432L16.1099 29.4399L11.1613 31.8258Z" fill="#D5BFB2" stroke="#D5BFB2" stroke-width="0.276147" stroke-linecap="round" stroke-linejoin="round"/>
<path d="M15.8338 23.9944L11.7247 22.7904L14.6187 21.4539L15.8338 23.9944Z" fill="#233447" stroke="#233447" stroke-width="0.276147" stroke-linecap="round" stroke-linejoin="round"/>
<path d="M21.8096 23.9943L23.0136 21.4648L25.9297 22.8014L21.8096 23.9943Z" fill="#233447" stroke="#233447" stroke-width="0.276147" stroke-linecap="round" stroke-linejoin="round"/>
<path d="M11.1613 31.826L11.8793 25.9275L7.31737 26.06L11.1613 31.826Z" fill="#CC6228" stroke="#CC6228" stroke-width="0.276147" stroke-linecap="round" stroke-linejoin="round"/>
<path d="M25.764 25.9275L26.4709 31.826L30.3259 26.06L25.764 25.9275Z" fill="#CC6228" stroke="#CC6228" stroke-width="0.276147" stroke-linecap="round" stroke-linejoin="round"/>
<path d="M29.2214 19.4324L21.0474 19.8079L21.8096 24.0054L23.0136 21.4759L25.9297 22.8124L29.2214 19.4324Z" fill="#CC6228" stroke="#CC6228" stroke-width="0.276147" stroke-linecap="round" stroke-linejoin="round"/>
<path d="M11.7357 22.7904L14.6297 21.4539L15.8337 23.9834L16.5959 19.786L8.42196 19.4104L11.7357 22.7904Z" fill="#CC6228" stroke="#CC6228" stroke-width="0.276147" stroke-linecap="round" stroke-linejoin="round"/>
<path d="M8.42196 19.4324L11.8462 26.1151L11.7357 22.7903L8.42196 19.4324Z" fill="#E27525" stroke="#E27525" stroke-width="0.276147" stroke-linecap="round" stroke-linejoin="round"/>
<path d="M25.9297 22.7903L25.7971 26.1151L29.2213 19.4324L25.9297 22.7903Z" fill="#E27525" stroke="#E27525" stroke-width="0.276147" stroke-linecap="round" stroke-linejoin="round"/>
<path d="M16.5959 19.7969L15.8338 23.9943L16.7948 28.9429L17.0046 22.4147L16.5959 19.7969Z" fill="#E27525" stroke="#E27525" stroke-width="0.276147" stroke-linecap="round" stroke-linejoin="round"/>
<path d="M21.0474 19.7969L20.6497 22.4037L20.8486 28.9429L21.8096 23.9943L21.0474 19.7969Z" fill="#E27525" stroke="#E27525" stroke-width="0.276147" stroke-linecap="round" stroke-linejoin="round"/>
<path d="M21.8096 23.9943L20.8486 28.9429L21.5334 29.4289L25.7971 26.1041L25.9297 22.7793L21.8096 23.9943Z" fill="#F5841F" stroke="#F5841F" stroke-width="0.276147" stroke-linecap="round" stroke-linejoin="round"/>
<path d="M11.7357 22.7903L11.8462 26.1151L16.1099 29.4399L16.7947 28.9539L15.8337 24.0053L11.7357 22.7903Z" fill="#F5841F" stroke="#F5841F" stroke-width="0.276147" stroke-linecap="round" stroke-linejoin="round"/>
<path d="M21.8979 34.002L21.9421 32.6433L21.5666 32.323H16.0878L15.7343 32.6433L15.7675 34.002L11.1613 31.8259L12.774 33.1404L16.0326 35.3827H21.6107L24.8803 33.1404L26.4709 31.8259L21.8979 34.002Z" fill="#C0AC9D" stroke="#C0AC9D" stroke-width="0.276147" stroke-linecap="round" stroke-linejoin="round"/>
<path d="M21.5334 29.4289L20.8486 28.9429H16.7947L16.1099 29.4289L15.7233 32.6322L16.0768 32.3119H21.5555L21.9311 32.6322L21.5334 29.4289Z" fill="white" stroke="white" stroke-width="0.276147" stroke-linecap="round" stroke-linejoin="round"/>
<path d="M36.1692 12.4735L37.3843 6.55291L35.5506 1.04102L21.5334 11.4131L26.9238 15.964L34.5455 18.1842L36.2244 16.218L35.4954 15.6878L36.6552 14.6274L35.7605 13.9426L36.9203 13.0589L36.1692 12.4735Z" fill="#763E1A" stroke="#763E1A" stroke-width="0.276147" stroke-linecap="round" stroke-linejoin="round"/>
<path d="M0.259071 6.54186L1.49621 12.4624L0.711952 13.0479L1.89386 13.9316L0.999145 14.6164L2.15896 15.6768L1.42993 16.207L3.10891 18.1732L10.7306 15.9529L16.1209 11.402L2.09269 1.04102L0.259071 6.54186Z" fill="#763E1A" stroke="#763E1A" stroke-width="0.276147" stroke-linecap="round" stroke-linejoin="round"/>
<path d="M34.5455 18.1843L26.9238 15.9641L29.2213 19.4325L25.7971 26.1153L30.337 26.06H37.1081L34.5455 18.1843Z" fill="#F5841F" stroke="#F5841F" stroke-width="0.276147" stroke-linecap="round" stroke-linejoin="round"/>
<path d="M10.7195 15.9641L3.09786 18.1843L0.557304 26.06H7.31738L11.8572 26.1153L8.43301 19.4325L10.7195 15.9641Z" fill="#F5841F" stroke="#F5841F" stroke-width="0.276147" stroke-linecap="round" stroke-linejoin="round"/>
<path d="M21.0474 19.7971L21.5334 11.4133L23.7426 5.44849H13.9007L16.1099 11.4133L16.5959 19.7971L16.7837 22.426L16.7948 28.9431H20.8375L20.8486 22.426L21.0474 19.7971Z" fill="#F5841F" stroke="#F5841F" stroke-width="0.276147" stroke-linecap="round" stroke-linejoin="round"/>
</g>
<defs>
<clipPath id="clip0_11_109">
<rect width="188.034" height="34.6288" fill="white" transform="translate(0.115479 0.897461)"/>
</clipPath>
</defs>
</svg>
