<svg width="123" height="30" viewBox="0 0 123 30" fill="none" xmlns="http://www.w3.org/2000/svg">
<path d="M0.128906 2.33984H8.05859V18.1797C8.05859 19.4167 8.25391 20.2435 8.64453 20.6602C9.04818 21.0638 9.83594 21.2656 11.0078 21.2656H11.418V29H9.30859C6.41797 29 4.16536 28.1602 2.55078 26.4805C0.936198 24.7878 0.128906 22.444 0.128906 19.4492V2.33984ZM22.8047 9.11719C25.5651 9.11719 27.9284 10.1133 29.8945 12.1055C31.8737 14.0846 32.8633 16.4609 32.8633 19.2344C32.8633 22.0469 31.8607 24.4427 29.8555 26.4219C27.8633 28.401 25.4544 29.3906 22.6289 29.3906C19.8034 29.3906 17.388 28.401 15.3828 26.4219C13.3776 24.4297 12.375 22.0339 12.375 19.2344C12.375 16.3828 13.3776 13.987 15.3828 12.0469C17.388 10.0938 19.862 9.11719 22.8047 9.11719ZM22.6094 16.3242C21.8281 16.3242 21.1641 16.6107 20.6172 17.1836C20.0703 17.7435 19.7969 18.4336 19.7969 19.2539C19.7969 20.0612 20.0703 20.7513 20.6172 21.3242C21.1771 21.8971 21.8411 22.1836 22.6094 22.1836C23.3906 22.1836 24.0547 21.8971 24.6016 21.3242C25.1615 20.7513 25.4414 20.0612 25.4414 19.2539C25.4414 18.4336 25.168 17.7435 24.6211 17.1836C24.0742 16.6107 23.4036 16.3242 22.6094 16.3242ZM45.1484 9.11719C47.9089 9.11719 50.2721 10.1133 52.2383 12.1055C54.2174 14.0846 55.207 16.4609 55.207 19.2344C55.207 22.0469 54.2044 24.4427 52.1992 26.4219C50.207 28.401 47.7982 29.3906 44.9727 29.3906C42.1471 29.3906 39.7318 28.401 37.7266 26.4219C35.7214 24.4297 34.7188 22.0339 34.7188 19.2344C34.7188 16.3828 35.7214 13.987 37.7266 12.0469C39.7318 10.0938 42.2057 9.11719 45.1484 9.11719ZM44.9531 16.3242C44.1719 16.3242 43.5078 16.6107 42.9609 17.1836C42.4141 17.7435 42.1406 18.4336 42.1406 19.2539C42.1406 20.0612 42.4141 20.7513 42.9609 21.3242C43.5208 21.8971 44.1849 22.1836 44.9531 22.1836C45.7344 22.1836 46.3984 21.8971 46.9453 21.3242C47.5052 20.7513 47.7852 20.0612 47.7852 19.2539C47.7852 18.4336 47.5117 17.7435 46.9648 17.1836C46.418 16.6107 45.7474 16.3242 44.9531 16.3242ZM65.5586 2.33984V29H58.2539V2.33984H65.5586ZM76.75 9.52734L73.1758 16.6172L78.4883 29H70.4023L65.832 16.2852L69.1523 9.52734H76.75ZM87.1211 2.33984V29H79.8164V2.33984H87.1211ZM98.7227 9.52734V29H91.418V9.52734H98.7227ZM95.0898 0.835938C96.0794 0.835938 96.9323 1.1875 97.6484 1.89062C98.3776 2.58073 98.7422 3.40104 98.7422 4.35156C98.7422 5.36719 98.3971 6.20052 97.707 6.85156C97.0299 7.5026 96.1576 7.82812 95.0898 7.82812C94.0221 7.82812 93.1432 7.5026 92.4531 6.85156C91.776 6.20052 91.4375 5.36719 91.4375 4.35156C91.4375 3.40104 91.7956 2.58073 92.5117 1.89062C93.2409 1.1875 94.1003 0.835938 95.0898 0.835938ZM122.16 20.4453H111.086C110.917 19.8854 110.832 19.3711 110.832 18.9023C110.832 18.2513 110.949 17.6133 111.184 16.9883H114.895C114.634 15.543 113.82 14.8203 112.453 14.8203C111.542 14.8203 110.799 15.2109 110.227 15.9922C109.654 16.7604 109.367 17.75 109.367 18.9609C109.367 20.224 109.641 21.2461 110.188 22.0273C110.747 22.8086 111.477 23.1992 112.375 23.1992C113.104 23.1992 113.807 22.8346 114.484 22.1055L118.645 27.1055C116.704 28.6289 114.549 29.3906 112.18 29.3906C109.289 29.3906 106.861 28.4206 104.895 26.4805C102.928 24.5404 101.945 22.138 101.945 19.2734C101.945 16.4219 102.935 14.013 104.914 12.0469C106.906 10.0807 109.348 9.09766 112.238 9.09766C115.064 9.09766 117.434 10.0612 119.348 11.9883C121.275 13.9023 122.238 16.2656 122.238 19.0781C122.238 19.3646 122.212 19.8203 122.16 20.4453Z" fill="#1D1D1D"/>
</svg>
